<svg xmlns="http://www.w3.org/2000/svg" width="300" height="193.462"><path style="fill:#fab60f;stroke:none" d="m438.218 397.427-.003.002h.004c-1.785 2.698-2.433 5.946-2.977 9.332-.667 4.123-1.37 8.081-2.828 11.961-1.752 4.651-4.694 9.833-9.815 13.889a133 133 0 0 0-22.74-39.214c6.102-2.439 12.091-2.401 17.015-1.589 4.09.677 7.869 2.047 11.775 3.531 3.202 1.223 6.34 2.286 9.569 2.088m-59.417-59.416-.002.003.004-.001c-.198 3.228.865 6.365 2.087 9.569 1.484 3.905 2.854 7.684 3.532 11.774.812 4.928.849 10.924-1.596 17.031a133.1 133.1 0 0 0-39.261-22.688c4.065-5.163 9.27-8.124 13.942-9.883 3.88-1.458 7.838-2.161 11.963-2.829 3.384-.543 6.633-1.19 9.331-2.976m50.055 117.925c6.458.955 11.597 3.967 15.437 7.117 3.202 2.632 5.79 5.708 8.431 8.947 2.161 2.658 4.347 5.148 7.241 6.591h-29.157a134 134 0 0 0-1.952-22.655M216.471 338.013l.002.002v-.003c2.698 1.785 5.947 2.432 9.332 2.977 4.123.667 8.081 1.37 11.961 2.827 4.672 1.759 9.878 4.721 13.942 9.884a133 133 0 0 0-39.261 22.688c-2.445-6.107-2.409-12.103-1.595-17.032.677-4.089 2.047-7.869 3.531-11.775 1.222-3.202 2.286-6.34 2.088-9.568m-59.416 59.417.003.001-.001-.003c3.228.197 6.366-.866 9.569-2.088 3.905-1.484 7.684-2.854 11.773-3.532 4.925-.811 10.914-.848 17.015 1.59a133.1 133.1 0 0 0-22.739 39.214c-5.121-4.057-8.063-9.237-9.815-13.889-1.458-3.88-2.161-7.838-2.828-11.962-.544-3.385-1.192-6.634-2.977-9.331m-21.745 81.161c2.894-1.443 5.078-3.932 7.242-6.591 2.639-3.238 5.227-6.314 8.429-8.945 3.841-3.151 8.976-6.164 15.436-7.118a134 134 0 0 0-1.95 22.654zm162.326-162.327v.003l.002-.003c1.443 2.895 3.933 5.08 6.592 7.244 3.238 2.639 6.315 5.227 8.946 8.429 3.17 3.865 6.202 9.041 7.136 15.558a134 134 0 0 0-22.675-1.931c-7.731 0-15.305.666-22.676 1.931.934-6.516 3.966-11.693 7.136-15.557 2.632-3.203 5.708-5.791 8.946-8.431 2.659-2.162 5.149-4.348 6.593-7.243" transform="translate(-121.056 -285.648)scale(.90958)"/><path style="fill:#d52736;stroke:none" d="m270.555 478.621 10.02-.029c1.316-8.463-1.258-14.979-9.819-13.424-7.214 1.31-14.963 8.477-19.646 13.424l13.211-.058c1.472-.968 4.353-2.072 5.536-1.25.443.308.674.745.698 1.337" transform="translate(-121.056 -285.648)scale(.90958)"/><path style="fill:#d52736;stroke:none" d="M315.615 478.593h12.5c.595-14.762-1.783-30.006-8.646-43.195-6.242-12-16.56-20.157-29.918-22.128-19.5-2.877-39.176 5.378-55.811 17.188-18.112 12.859-33.062 30.323-46.127 48.135l16.513-.024c14.866-21.071 49.059-53.06 74.212-53.269 8.016-.066 16.166 1.815 22.192 7.191 4.366 3.896 9.659 11.461 9.4 17.601-.154 3.641-3.385 4.757-6.483 3.629-2.407-.876-4.107-3.076-5.791-5.389-5.473-7.514-14.01-11.191-23.374-9.91-11.168 1.527-25.012 10.199-33.941 18.086-7.7 6.802-14.769 14.246-21.437 22.085h17.754c6.507-7.856 13.378-14.555 22.211-20.057 2.795-1.741 6.237-3.582 9.855-4.826 9.127-3.137 18.21-2.343 22.243 9.021 1.585 4.468 1.818 8.387 1.356 15.569l-.001.293h12.072l.031-.369c.009-3.933-.077-6.583.278-10.481.305-3.359 1.349-6.84 4.469-7.254 6.631-1.389 6.313 13.363 6.443 18.104" transform="translate(-121.056 -285.648)scale(.90958)"/><path style="fill:#d52736;stroke:none" d="M341.259 478.593h12.604c.61-13.696-.564-29.922-4.995-44.09a79 79 0 0 0-3.009-8.098c-2.683-6.123-6.293-11.665-10.597-16.787-4.784-5.69-10.484-10.806-16.91-14.836a64 64 0 0 0-5.892-3.279v-.002a60 60 0 0 0-6.242-2.627l-.008-.003c-24.545-8.715-49.37-2.517-70.194 8.809a141 141 0 0 0-11.687 7.134 154 154 0 0 0-10.59 7.871h-.001l-.006.006a144 144 0 0 0-13.794 12.778 123 123 0 0 0-2.842 3.112c-2.477 2.808-6.294 6.745-5.161 10.815.897 3.228 5.062 2.277 6.513 1.165 2.227-1.195 4.673-3.089 6.766-4.86 2.834-2.399 5.511-4.982 8.317-7.414 11.35-9.839 23.18-17.427 34.833-22.562a106 106 0 0 1 7.617-3.016 94 94 0 0 1 7.527-2.302l.012-.003c21.683-5.63 45.245-1.983 60.331 15.7 14.533 17.032 17.186 39.832 17.408 62.489m-156.388-19.255c1.354-1.264 2.734-2.913 4.172-4.739 2.012-2.552 2.214-5.023 1.419-6.807a4.66 4.66 0 0 0-1.264-1.683 4.4 4.4 0 0 0-1.82-.908c-1.64-.375-3.601.212-5.266 2.238-1.883 2.29-4.483 6.208-5.014 9.673a7.2 7.2 0 0 0-.059 1.872c.065.576.219 1.124.478 1.624l.002.005.001-.001c.424.814 1.139 1.243 2.093 1.279q.299.01.643-.027.336-.038.722-.129l.001.002.012-.003c1.284-.308 2.568-1.172 3.88-2.396" transform="translate(-121.056 -285.648)scale(.90958)"/><path style="fill:#d52736;stroke:none" d="m372.787 478.597.09-.002h.045c1.319.072 3.608-.535 4.928-2.762a6.8 6.8 0 0 0 .66-1.532 9.2 9.2 0 0 0 .347-2.004h.001l.009-.154c1.002-35.006-9.72-63.985-27.923-83.673a89 89 0 0 0-11.436-10.406 86.4 86.4 0 0 0-12.938-8.156l-.001.001-.072-.036-.002-.002c-15.3-7.819-32.652-10.822-49.684-9.379a98.5 98.5 0 0 0-19.599 3.682l-.045.014c-17.516 5.181-33.816 15.466-47.099 28.961a122 122 0 0 0-10.789 12.553c9.315-8.037 19.309-15.087 29.762-20.688a135 135 0 0 1 7.097-3.544 125 125 0 0 1 7.219-3.074l.007-.003.007-.003c9.235-3.589 18.339-5.878 27.445-6.901s18.218-.78 27.471.691c6.585 1.048 13.013 2.772 18.803 5.184q1.686.702 3.311 1.49a57 57 0 0 1 3.15 1.65h.002l.016.008-.001.001c20.386 11.163 34.549 34.069 40.787 59.931a129 129 0 0 1 3.586 31.055v.002l-.003.301c.104 2.801 1.064 5.144 2.709 6.199.306.196.638.349.991.448h.002q.54.156 1.147.148" transform="translate(-121.056 -285.648)scale(.90958)"/><path style="fill:#fab60f;stroke:none" d="M336.337 361.93c49.014 16.189 84.436 62.281 84.642 116.664h-24.252c1.605-47.505-19.128-90.385-60.39-116.664" transform="translate(-121.056 -285.648)scale(.90958)"/><path style="fill:#d52736;stroke:none" d="M194.025 516.738h-9.81l-2.429 8.547h-7.819l10.345-32.733h9.907l10.636 32.733h-8.159zm-8.693-5.537h7.527q-2.961-9.592-3.836-13.162h-.098l-1.554 6.217zm44.727 5.537h-9.811l-2.428 8.547h-7.819l10.344-32.733h9.908l10.636 32.733h-8.159zm-8.694-5.537h7.528q-2.963-9.592-3.837-13.162h-.097l-1.554 6.217zm27 13.939v-32.151q4.857-.729 10.393-.729 10.468-.002 15.024 4.379c3.035 2.922 4.549 6.743 4.549 11.454 0 5.569-1.724 9.883-5.181 12.943-3.456 3.059-8.79 4.589-15.994 4.589q-5.002 0-8.791-.485m7.528-26.809v21.321q.632.145 2.72.145c3.739 0 6.637-.987 8.685-2.954s3.068-4.784 3.068-8.459q.002-5.05-2.801-7.698-2.807-2.647-8.078-2.647-2.21 0-3.594.292m30.497-5.779h7.528v12.578h12.87v-12.578h7.528v32.733h-7.528v-13.647h-12.87v13.647h-7.528zm55.217 24.186h-9.81l-2.428 8.547h-7.82l10.345-32.733h9.908l10.636 32.733h-8.159zm-8.693-5.537h7.528q-2.963-9.592-3.837-13.162h-.097l-1.554 6.217zm44.727 5.537h-9.811l-2.428 8.547h-7.819l10.344-32.733h9.908l10.636 32.733h-8.159zm-8.694-5.537h7.528q-2.963-9.592-3.837-13.162h-.097l-1.554 6.217zm27 14.084v-32.296q4.129-.729 10.151-.729 7.43 0 10.684 2.453 3.255 2.452 3.254 7.018c0 1.813-.542 3.448-1.635 4.913a8.74 8.74 0 0 1-4.241 3.1v.194q3.06 1.142 4.419 6.022 2.502 8.791 2.72 9.325h-7.673q-.972-1.82-2.332-7.625-.68-2.913-1.845-4.079t-3.74-1.166h-2.331v12.87zm7.431-27.246v8.985h3.108q2.817-.002 4.444-1.279 1.627-1.272 1.627-3.432c0-1.441-.485-2.558-1.465-3.343-.979-.785-2.372-1.173-4.168-1.173q-2.647 0-3.546.242" transform="translate(-121.056 -285.648)scale(.90958)"/></svg>