<svg width="106" height="49" viewBox="0 0 106 49" fill="none" xmlns="http://www.w3.org/2000/svg">
    <path fill-rule="evenodd" clip-rule="evenodd" d="M33.523 14.655a6 6 0 0 0-.558-.46L18.059 3.329c-1.146-.815-1.961-.977-3.52-.73L4.693 4.16C1.15 4.72-.456 6.905.112 10.49l5.05 31.881c.57 3.606 2.73 5.174 6.314 4.606l21.836-3.458c1.807-.286 3.105-.988 3.872-2.078h-2.376q-.744.421-1.815.592L11.3 45.47c-2.634.417-4.23-.742-4.646-3.376l-5.037-31.8c-.4-2.532.742-4.23 3.396-4.65L15.1 4.048l2.021 12.76c.318 2.006 1.472 2.737 3.355 2.439l12.72-2.015.327 2.063zm33.722 26.787c.609 1.634 2.078 2.651 4.376 3.015l21.836 3.459c3.565.564 5.747-1.021 6.314-4.606l3.138-19.81c.257-1.62.112-2.412-.72-3.582L91.37 4.978c-.838-1.129-1.563-1.534-3.123-1.782l-9.844-1.559c-2.936-.465-4.952.541-5.88 2.939v8.622l1.058-6.677c.4-2.532 2.012-3.792 4.666-3.372l10.087 1.598-2.021 12.76c-.318 2.006.554 3.057 2.438 3.356l12.72 2.015-3.192 20.154c-.417 2.633-2.013 3.792-4.666 3.372l-21.694-3.436c-1.335-.212-2.291-.726-2.855-1.526zm21.858-22.018c-1.114-.177-1.489-.693-1.312-1.807l1.944-12.275 11.602 16.02zm-68.736-1.656c-1.114.176-1.63-.199-1.807-1.313L16.616 4.181l15.985 11.65z" fill="#2F76FF" fill-opacity=".4"/><path d="M42.27 43.354h22.107c3.61 0 5.517-1.908 5.517-5.538V17.76c0-1.64-.267-2.4-1.271-3.425L55.6 1.271C54.595.287 53.816 0 52.237 0H42.27c-3.589 0-5.517 1.907-5.517 5.537v32.28c0 3.65 1.887 5.536 5.517 5.536m.061-1.518c-2.666 0-4.06-1.395-4.06-4.06V5.577c0-2.563 1.395-4.06 4.081-4.06h10.213v12.92c0 2.03 1.025 2.932 2.933 2.932h12.878v20.405c0 2.666-1.394 4.06-4.08 4.06zm13.29-25.942c-1.128 0-1.58-.452-1.58-1.58V1.888l13.966 14.007z" fill="#2F76FF"/>
    <rect x="43" y="24" rx="3" ry="3" width="20" height="14" fill="#2F76FF"/>
    <text x="53" y="34" font-family="Arial, sans-serif" font-size="8" fill="#fff" text-anchor="middle" font-weight="bold">PDF</text>
    <g transform="rotate(-10 25 25)">
    <rect x="10" y="24" rx="3" ry="3" width="20" height="14" fill="#2F76FF"/>
    <text x="20" y="34" font-family="Arial, sans-serif" font-size="8" fill="#fff" text-anchor="middle" font-weight="bold">PDF</text>
    </g>
    <g transform="rotate(10 30 400)"><rect x="10" y="24" rx="3" ry="3" width="20" height="14" fill="#2F76FF"/>
    <text x="20" y="34" font-family="Arial, sans-serif" font-size="8" fill="#fff" text-anchor="middle" font-weight="bold">PDF</text>
    </g>
</svg>